<svg width="1017" height="973" viewBox="0 0 1017 973" fill="none" xmlns="http://www.w3.org/2000/svg">
<path d="M707.889 12.5371C954.27 -55.4548 979.349 196.413 904.955 378.178C866.695 484.229 985.681 553.875 938.195 685.252C890.709 816.629 741.129 659.135 664.36 860.158C587.592 1061.18 244.111 963.044 240.154 787.346C236.197 611.649 178.423 659.926 46.254 484.229C-85.9147 308.532 97.6971 12.5375 291.597 86.1403C485.497 159.743 441.177 86.1395 707.889 12.5371Z" stroke="#01975F" stroke-opacity="0.15" stroke-width="1.3187"/>
<path d="M691.659 46.9033C917.776 -15.6207 944.016 216.69 874.916 384.617C838.789 483.487 947.865 549.306 904.097 670.395C859.349 794.185 722.532 649.406 650.867 834.102C578.796 1019.22 260.568 931.135 256.971 765.962C253.373 601.756 198.675 646.985 77.5571 483.905C-43.5606 320.825 125.001 47.9345 305.595 114.846C483.491 181.758 445.641 115.002 691.659 46.9033Z" stroke="#01975F" stroke-opacity="0.15" stroke-width="1.3187"/>
<path d="M675.406 81.2814C881.257 24.2252 908.659 236.98 844.853 391.069C810.86 482.757 910.026 544.75 869.975 655.55C827.966 771.753 703.911 639.689 637.35 808.058C569.977 977.271 277 899.238 273.762 744.589C270.525 591.876 218.902 634.056 108.836 483.594C-1.23103 333.131 152.28 83.3435 319.568 143.564C481.459 203.784 450.081 143.877 675.406 81.2814Z" stroke="#01975F" stroke-opacity="0.15" stroke-width="1.3187"/>
<path d="M659.182 115.649C844.769 64.0612 873.332 257.259 814.821 397.51C782.961 482.017 872.217 540.183 835.883 640.694C796.612 749.311 685.32 629.962 623.864 782.003C561.188 935.311 293.463 867.331 290.585 723.207C287.707 581.985 239.161 621.117 140.145 483.272C41.1296 345.426 179.59 118.742 333.572 172.272C479.459 225.801 454.551 172.742 659.182 115.649Z" stroke="#01975F" stroke-opacity="0.15" stroke-width="1.3187"/>
<path d="M642.95 150.027C808.271 103.907 837.997 277.548 784.78 403.961C755.053 481.287 834.399 535.625 801.783 625.848C765.25 726.878 666.72 620.245 610.369 755.958C552.39 893.361 309.917 835.433 307.398 701.834C304.88 572.103 259.41 608.188 171.445 482.959C83.4806 357.731 206.89 154.151 347.567 200.989C477.449 247.827 459.012 201.616 642.95 150.027Z" stroke="#01975F" stroke-opacity="0.15" stroke-width="1.3187"/>
<path d="M625.887 184.396C770.943 143.744 801.83 297.828 753.908 410.403C726.314 480.548 795.751 531.06 766.851 610.994C733.057 704.437 647.29 610.519 596.043 729.905C542.762 851.403 325.54 803.527 323.382 680.452C321.223 562.213 278.828 595.25 201.915 482.639C125.002 370.028 233.36 189.551 360.731 229.698C474.609 269.845 462.642 230.482 625.887 184.396Z" stroke="#01975F" stroke-opacity="0.15" stroke-width="1.3187"/>
<path d="M607.844 218.775C732.635 183.59 764.684 318.118 722.056 416.855C696.595 479.818 756.122 526.504 730.94 596.149C699.884 682.005 626.88 600.802 580.736 703.861C532.153 809.454 340.183 771.631 338.384 659.08C336.585 552.333 297.267 582.321 231.404 482.327C165.542 382.334 258.85 224.96 372.915 258.416C470.789 291.872 465.292 259.357 607.844 218.775Z" stroke="#01975F" stroke-opacity="0.15" stroke-width="1.3187"/>
<path d="M589.761 253.144C694.288 223.428 727.498 338.399 690.165 423.298C666.837 479.08 716.454 521.938 694.989 581.296C666.672 659.564 606.43 591.077 565.391 677.808C521.506 767.496 354.787 739.725 353.348 637.699C351.909 542.444 315.666 569.384 260.855 482.007C206.043 394.631 284.301 260.361 385.06 287.125C466.929 313.89 467.904 288.224 589.761 253.144Z" stroke="#01975F" stroke-opacity="0.15" stroke-width="1.3187"/>
<path d="M571.601 287.516C655.863 263.268 690.235 358.682 658.195 429.743C637.001 478.344 676.709 517.376 658.961 566.444C633.382 637.126 585.903 581.354 549.968 651.758C510.78 725.54 369.313 707.822 368.234 616.32C367.154 532.557 333.987 556.449 290.227 481.689C246.467 406.93 309.674 295.764 397.127 315.837C462.992 335.911 470.437 317.092 571.601 287.516Z" stroke="#01975F" stroke-opacity="0.15" stroke-width="1.3187"/>
<path d="M553.303 321.9C617.299 303.119 652.833 378.977 626.088 436.2C607.027 477.619 636.825 512.824 622.795 551.604C599.954 614.699 565.237 571.642 534.406 625.718C499.916 683.596 383.701 675.93 382.981 594.953C382.262 522.681 352.171 543.525 319.462 481.383C286.752 419.241 334.909 331.178 409.056 344.56C458.916 357.942 472.832 345.972 553.303 321.9Z" stroke="#01975F" stroke-opacity="0.15" stroke-width="1.3187"/>
<path d="M534.869 356.279C578.601 342.966 615.297 399.267 593.846 442.652C576.918 476.89 596.806 508.268 586.493 536.76C566.39 592.268 544.437 561.926 518.71 599.675C488.917 641.648 397.953 644.034 397.593 573.581C397.234 512.801 370.219 530.597 348.561 481.072C326.902 431.547 360.008 366.588 420.85 373.279C454.706 379.97 475.092 374.848 534.869 356.279Z" stroke="#01975F" stroke-opacity="0.15" stroke-width="1.3187"/>
</svg>
