<svg width="40" height="40" viewBox="0 0 40 40" fill="none" xmlns="http://www.w3.org/2000/svg">
<rect width="40" height="40" rx="8.33333" fill="black" fill-opacity="0.1"/>
<path d="M19.9985 15.667C19.3089 15.667 18.6476 15.9409 18.16 16.4285C17.6724 16.9162 17.3984 17.5775 17.3984 18.2671C17.3984 18.9567 17.6724 19.618 18.16 20.1056C18.6476 20.5932 19.3089 20.8672 19.9985 20.8672C20.6881 20.8672 21.3495 20.5932 21.8371 20.1056C22.3247 19.618 22.5986 18.9567 22.5986 18.2671C22.5986 17.5775 22.3247 16.9162 21.8371 16.4285C21.3495 15.9409 20.6881 15.667 19.9985 15.667Z" fill="#008651"/>
<path fill-rule="evenodd" clip-rule="evenodd" d="M22.6005 10.4668H20.8671V7H19.1338V10.4668H17.4004C14.642 10.4668 11.9966 11.5625 10.0462 13.513C8.09575 15.4634 7 18.1088 7 20.8672C7 23.6255 8.09575 26.2709 10.0462 28.2213C11.9966 30.1718 14.642 31.2675 17.4004 31.2675H22.6005C22.8259 31.2675 23.0512 31.2606 23.2748 31.245L30.1911 32.9749C30.3362 33.011 30.4881 33.009 30.6322 32.969C30.7763 32.9291 30.9076 32.8525 31.0133 32.7467C31.1191 32.641 31.1957 32.5097 31.2356 32.3656C31.2756 32.2215 31.2776 32.0696 31.2415 31.9245L30.2413 27.9221C31.6126 26.4367 32.5213 24.5839 32.8563 22.5902C33.1912 20.5966 32.9378 18.5485 32.1272 16.6966C31.3165 14.8447 29.9837 13.2691 28.2918 12.1627C26.5998 11.0563 24.6221 10.467 22.6005 10.4668ZM15.667 18.2671C15.667 17.1177 16.1235 16.0155 16.9362 15.2028C17.7489 14.3901 18.8511 13.9336 20.0005 13.9336C21.1498 13.9336 22.252 14.3901 23.0647 15.2028C23.8774 16.0155 24.3339 17.1177 24.3339 18.2671C24.3339 19.4164 23.8774 20.5186 23.0647 21.3313C22.252 22.144 21.1498 22.6005 20.0005 22.6005C18.8511 22.6005 17.7489 22.144 16.9362 21.3313C16.1235 20.5186 15.667 19.4164 15.667 18.2671ZM20.0005 27.8007C18.2275 27.8034 16.507 27.1997 15.1244 26.0899L16.2095 24.7378C17.2478 25.5698 18.5652 26.0673 20.0005 26.0673C21.4357 26.0673 22.7531 25.5698 23.7914 24.7378L24.8765 26.0899C23.4939 27.1997 21.7734 27.8034 20.0005 27.8007Z" fill="#008651"/>
</svg>
