<svg width="25" height="24" viewBox="0 0 25 24" fill="none" xmlns="http://www.w3.org/2000/svg">
<path d="M17.5391 2H7.53906C4.77906 2 2.53906 4.23 2.53906 6.98V13.96C2.53906 16.71 4.77906 18.94 7.53906 18.94H9.03906C9.30906 18.94 9.66906 19.12 9.83906 19.34L11.3391 21.33C11.9991 22.21 13.0791 22.21 13.7391 21.33L15.2391 19.34C15.4291 19.09 15.7291 18.94 16.0391 18.94H17.5391C20.2991 18.94 22.5391 16.71 22.5391 13.96V6.98C22.5391 4.23 20.2991 2 17.5391 2ZM8.53906 12C7.97906 12 7.53906 11.55 7.53906 11C7.53906 10.45 7.98906 10 8.53906 10C9.08906 10 9.53906 10.45 9.53906 11C9.53906 11.55 9.09906 12 8.53906 12ZM12.5391 12C11.9791 12 11.5391 11.55 11.5391 11C11.5391 10.45 11.9891 10 12.5391 10C13.0891 10 13.5391 10.45 13.5391 11C13.5391 11.55 13.0991 12 12.5391 12ZM16.5391 12C15.9791 12 15.5391 11.55 15.5391 11C15.5391 10.45 15.9891 10 16.5391 10C17.0891 10 17.5391 10.45 17.5391 11C17.5391 11.55 17.0991 12 16.5391 12Z" fill="#757575"/>
</svg>
