<svg width="58" height="22" viewBox="0 0 58 22" fill="none" xmlns="http://www.w3.org/2000/svg">
<rect width="57.6915" height="21.5933" rx="10.7966" fill="#008651"/>
<path d="M46.8608 14.1083C48.6738 14.1083 50.1435 12.6386 50.1435 10.8257C50.1435 9.01268 48.6738 7.54297 46.8608 7.54297C45.0478 7.54297 43.5781 9.01268 43.5781 10.8257C43.5781 12.6386 45.0478 14.1083 46.8608 14.1083Z" stroke="white" stroke-width="0.757543" stroke-linecap="round" stroke-linejoin="round"/>
<path d="M50.4687 14.4316L50.403 14.3659M50.403 7.28543L50.4687 7.21977L50.403 7.28543ZM43.2569 14.4316L43.3225 14.3659L43.2569 14.4316ZM46.8628 5.81579V5.77539V5.81579ZM46.8628 15.876V15.8356V15.876ZM41.8529 10.8257H41.8125H41.8529ZM51.9131 10.8257H51.8727H51.9131ZM43.3225 7.28543L43.2569 7.21977L43.3225 7.28543Z" stroke="white" stroke-width="1.01006" stroke-linecap="round" stroke-linejoin="round"/>
<path d="M5.78715 11.0407C5.96896 13.6416 8.17594 15.7577 10.8172 15.8738C12.6808 15.9547 14.3474 15.086 15.3473 13.7174C15.7615 13.1568 15.5393 12.7831 14.8474 12.9093C14.509 12.9699 14.1605 12.9952 13.7969 12.98C11.3273 12.879 9.3072 10.8135 9.2971 8.37417C9.29205 7.71764 9.42841 7.09645 9.67588 6.53082C9.94859 5.90458 9.62032 5.60662 8.98904 5.87428C6.98912 6.71768 5.62049 8.73274 5.78715 11.0407Z" stroke="white" stroke-width="0.757543" stroke-linecap="round" stroke-linejoin="round"/>
<ellipse cx="46.9295" cy="10.797" rx="8.59793" ry="8.63075" transform="rotate(-135 46.9295 10.797)" fill="white"/>
<path d="M51.9685 5.76141C54.7367 8.52959 54.7263 13.0281 51.9453 15.8091" stroke="#008651" stroke-width="1.70646" stroke-linecap="round"/>
</svg>
