<svg width="14" height="16" viewBox="0 0 14 16" fill="none" xmlns="http://www.w3.org/2000/svg">
<path d="M0.78446 4.76383L0.267707 7.7544C0.237383 7.92969 0.245719 8.10948 0.292133 8.2812C0.338547 8.45292 0.421919 8.61243 0.536416 8.74857C0.650912 8.88471 0.793768 8.99419 0.954992 9.06935C1.11622 9.14452 1.29192 9.18355 1.4698 9.18372L5.26739 9.18372C5.35602 9.18371 5.44359 9.20298 5.52402 9.24021C5.60444 9.27744 5.6758 9.33174 5.73314 9.39932C5.79047 9.46691 5.8324 9.54616 5.85602 9.63159C5.87964 9.71701 5.88438 9.80655 5.86991 9.89399L5.38394 12.8589C5.30507 13.3403 5.32754 13.8329 5.4499 14.3051C5.50226 14.5002 5.6031 14.6789 5.74304 14.8246C5.88298 14.9703 6.05748 15.0783 6.25032 15.1385L6.35661 15.1729C6.5969 15.2501 6.85765 15.2323 7.08519 15.1231C7.33441 15.0029 7.51619 14.7837 7.58362 14.5235L7.93252 13.1792C8.0436 12.7514 8.205 12.3383 8.41336 11.9485C8.71755 11.379 9.18813 10.9224 9.67776 10.5009L10.7325 9.592C10.8788 9.46555 10.9931 9.30623 11.066 9.1271C11.1389 8.94796 11.1683 8.75411 11.1518 8.56142L10.5566 1.6765C10.5304 1.37201 10.3909 1.08843 10.1658 0.881747C9.94065 0.675069 9.6462 0.560322 9.34059 0.560165L5.93368 0.560165C3.38142 0.560165 1.20373 2.33838 0.78446 4.76383Z" fill="black" fill-opacity="0.25"/>
<path fill-rule="evenodd" clip-rule="evenodd" d="M13.4737 9.73336C13.332 9.73955 13.1934 9.69077 13.0869 9.59721C12.9804 9.50365 12.9141 9.37254 12.9019 9.23127L12.1909 0.995456C12.1789 0.872811 12.192 0.748999 12.2294 0.631582C12.2668 0.514164 12.3278 0.405605 12.4085 0.312535C12.4893 0.219465 12.5882 0.143838 12.6992 0.0902728C12.8102 0.0367068 12.9309 0.00632754 13.054 0.000989831C13.1771 -0.00434787 13.3001 0.0154676 13.4153 0.0592269C13.5305 0.102986 13.6355 0.16977 13.7241 0.255501C13.8126 0.34123 13.8827 0.444106 13.9301 0.557846C13.9776 0.671585 14.0013 0.7938 13.9999 0.917026L13.9999 9.18436C13.9999 9.32605 13.9451 9.46226 13.8471 9.56455C13.749 9.66684 13.6152 9.72732 13.4737 9.73336Z" fill="black" fill-opacity="0.25"/>
</svg>
