<svg width="14" height="16" viewBox="0 0 14 16" fill="none" xmlns="http://www.w3.org/2000/svg">
<path d="M13.2155 10.4574L13.7323 7.46679C13.7626 7.2915 13.7543 7.11171 13.7079 6.93999C13.6615 6.76827 13.5781 6.60876 13.4636 6.47262C13.3491 6.33648 13.2062 6.227 13.045 6.15184C12.8838 6.07667 12.7081 6.03764 12.5302 6.03747H8.73261C8.64398 6.03749 8.55641 6.01821 8.47598 5.98098C8.39556 5.94375 8.3242 5.88945 8.26687 5.82187C8.20953 5.75428 8.1676 5.67503 8.14398 5.5896C8.12036 5.50418 8.11563 5.41464 8.1301 5.3272L8.61606 2.36228C8.69493 1.88088 8.67246 1.38832 8.5501 0.916105C8.49774 0.720985 8.3969 0.542269 8.25696 0.396563C8.11702 0.250858 7.94252 0.142893 7.74968 0.0827018L7.64339 0.0482514C7.4031 -0.0289393 7.14235 -0.0111017 6.91481 0.0980944C6.66559 0.218304 6.48381 0.437466 6.41638 0.697676L6.06748 2.04197C5.9564 2.46976 5.795 2.88287 5.58664 3.27265C5.28245 3.84218 4.81187 4.29883 4.32224 4.72029L3.26748 5.62919C3.12115 5.75564 3.00687 5.91496 2.93399 6.0941C2.86111 6.27323 2.83172 6.46708 2.84821 6.65977L3.44339 13.5447C3.46963 13.8492 3.60908 14.1328 3.83421 14.3394C4.05935 14.5461 4.3538 14.6609 4.65941 14.661H8.06633C10.6186 14.661 12.7963 12.8828 13.2155 10.4574Z" fill="#00B86F"/>
<path fill-rule="evenodd" clip-rule="evenodd" d="M0.52634 5.48783C0.667996 5.48164 0.806567 5.53042 0.913107 5.62398C1.01965 5.71754 1.08591 5.84865 1.09807 5.98992L1.80906 14.2257C1.82111 14.3484 1.80802 14.4722 1.77061 14.5896C1.7332 14.707 1.67225 14.8156 1.59147 14.9087C1.5107 15.0017 1.4118 15.0774 1.30081 15.1309C1.18983 15.1845 1.06909 15.2149 0.945975 15.2202C0.822857 15.2255 0.699943 15.2057 0.58474 15.162C0.469537 15.1182 0.364464 15.0514 0.275937 14.9657C0.187411 14.88 0.117289 14.7771 0.0698561 14.6633C0.0224227 14.5496 -0.00132714 14.4274 5.72166e-05 14.3042V6.03684C0.000117113 5.89514 0.0548892 5.75893 0.152946 5.65664C0.251003 5.55435 0.38477 5.49388 0.52634 5.48783Z" fill="#00B86F"/>
</svg>
