<svg width="30" height="30" viewBox="0 0 30 30" fill="none" xmlns="http://www.w3.org/2000/svg">
<path d="M14.9476 2.16992C12.4332 2.16992 9.9752 2.91554 7.88452 4.31249C5.79384 5.70944 4.16435 7.69497 3.20212 10.018C2.23988 12.3411 1.98812 14.8973 2.47866 17.3634C2.9692 19.8295 4.18002 22.0948 5.958 23.8728C7.73598 25.6507 10.0013 26.8616 12.4674 27.3521C14.9335 27.8427 17.4897 27.5909 19.8128 26.6287C22.1358 25.6664 24.1213 24.0369 25.5183 21.9463C26.9152 19.8556 27.6609 17.3976 27.6609 14.8832C27.6609 11.5114 26.3214 8.27774 23.9372 5.89354C21.553 3.50935 18.3194 2.16992 14.9476 2.16992ZM20.3961 18.5155C20.3961 18.9972 20.2048 19.4591 19.8642 19.7997C19.5236 20.1403 19.0616 20.3317 18.58 20.3317H11.3153C10.8336 20.3317 10.3716 20.1403 10.031 19.7997C9.69043 19.4591 9.49909 18.9972 9.49909 18.5155V11.2508C9.49909 10.7691 9.69043 10.3072 10.031 9.96657C10.3716 9.62597 10.8336 9.43463 11.3153 9.43463H18.58C19.0616 9.43463 19.5236 9.62597 19.8642 9.96657C20.2048 10.3072 20.3961 10.7691 20.3961 11.2508V18.5155Z" fill="#008651"/>
</svg>
