<?xml version="1.0" encoding="iso-8859-1"?>
<!-- Uploaded to: SVG Repo, www.svgrepo.com, Generator: SVG Repo Mixer Tools -->
<svg fill="#000000" height="800px" width="800px" version="1.1" id="Layer_1" xmlns="http://www.w3.org/2000/svg" xmlns:xlink="http://www.w3.org/1999/xlink" 
	 viewBox="0 0 512 512" xml:space="preserve">
<g>
	<g>
		<path d="M104.791,392.054c-0.148-0.727-0.362-1.442-0.646-2.123c-0.284-0.693-0.637-1.351-1.045-1.964
			c-0.409-0.625-0.886-1.204-1.408-1.726s-1.101-0.999-1.727-1.408c-0.625-0.409-1.283-0.761-1.963-1.045s-1.397-0.5-2.123-0.647
			c-1.465-0.295-2.975-0.295-4.44,0c-0.727,0.148-1.442,0.363-2.123,0.647s-1.34,0.636-1.963,1.045
			c-0.613,0.409-1.192,0.886-1.727,1.408c-0.522,0.522-0.999,1.101-1.407,1.726c-0.409,0.613-0.761,1.272-1.045,1.964
			c-0.284,0.681-0.5,1.397-0.647,2.123s-0.216,1.476-0.216,2.214c-0.002,2.998,1.203,5.916,3.313,8.028
			c0.535,0.522,1.113,0.999,1.727,1.408c0.625,0.42,1.283,0.761,1.963,1.056c0.682,0.284,1.397,0.5,2.123,0.647
			c0.738,0.148,1.476,0.216,2.226,0.216c2.986,0,5.916-1.215,8.028-3.327c2.112-2.112,3.327-5.03,3.327-8.028
			C105.018,393.531,104.94,392.781,104.791,392.054z"/>
	</g>
</g>
<g>
	<g>
		<path d="M475.367,131.818l16.938-16.938c26.238-26.239,26.238-68.931,0-95.17C479.595,7,462.695,0,444.72,0
			s-34.874,7-47.584,19.71l-16.939,16.939c-2.127-2.109-4.998-3.294-7.995-3.294c-3.011,0-5.899,1.197-8.029,3.326L93.884,306.971
			c-0.002,0.002-0.003,0.003-0.006,0.006l-2.333,2.333c-0.595,0.596-1.122,1.256-1.573,1.968l-58.996,93.483
			c-2.831,4.487-2.178,10.338,1.574,14.089l0.083,0.083l-31.767,77.4c-1.729,4.214-0.774,9.054,2.429,12.294
			C5.471,510.827,8.395,512,11.374,512c1.408,0,2.828-0.262,4.188-0.802l78.316-31.089c2.09,1.766,4.693,2.682,7.32,2.682
			c2.089,0,4.19-0.575,6.057-1.752l93.484-58.996c0.713-0.45,1.373-0.978,1.969-1.574l2.335-2.335l262.263-262.263l3.444,3.444
			c3.536,3.536,5.483,8.236,5.483,13.236c0,5.001-1.947,9.701-5.483,13.236L353.106,303.435c-4.434,4.434-4.434,11.624,0,16.058
			c2.218,2.218,5.123,3.326,8.029,3.326s5.811-1.109,8.029-3.326L486.806,201.85c7.826-7.825,12.135-18.229,12.135-29.296
			s-4.309-21.471-12.135-29.295L475.367,131.818z M32.025,480.23l18.013-43.891l26.3,26.3L32.025,480.23z M102.809,456.991
			l-47.784-47.784l48.374-76.654l17.958,17.958l-12.205,12.205c-4.434,4.434-4.434,11.624,0,16.059
			c2.218,2.218,5.123,3.326,8.029,3.326c2.906,0,5.811-1.108,8.029-3.326l12.205-12.205l42.046,42.046L102.809,456.991z
			 M197.013,394.048l-43.537-43.537l205.947-205.947c4.434-4.434,4.434-11.624,0-16.059c-4.435-4.434-11.623-4.434-16.059,0
			L137.417,334.453l-19.449-19.449L372.202,60.769l72.753,72.753l6.292,6.292L197.013,394.048z M459.31,115.76l-63.053-63.053
			l16.937-16.939c8.421-8.421,19.616-13.058,31.526-13.058s23.106,4.637,31.527,13.059c17.384,17.383,17.384,45.67,0,63.053
			L459.31,115.76z"/>
	</g>
</g>
</svg>