<svg width="14" height="16" viewBox="0 0 14 16" fill="none" xmlns="http://www.w3.org/2000/svg">
<path d="M13.2155 10.4564L13.7323 7.46581C13.7626 7.29053 13.7543 7.11074 13.7079 6.93901C13.6615 6.76729 13.5781 6.60778 13.4636 6.47164C13.3491 6.33551 13.2062 6.22602 13.045 6.15086C12.8838 6.0757 12.7081 6.03666 12.5302 6.03649H8.73261C8.64398 6.03651 8.55641 6.01723 8.47598 5.98C8.39556 5.94277 8.3242 5.88848 8.26687 5.82089C8.20953 5.75331 8.1676 5.67405 8.14398 5.58863C8.12036 5.50321 8.11563 5.41367 8.1301 5.32623L8.61606 2.36131C8.69493 1.87991 8.67246 1.38735 8.5501 0.915128C8.49774 0.720009 8.3969 0.541292 8.25696 0.395586C8.11702 0.249881 7.94252 0.141916 7.74968 0.0817252L7.64339 0.0472748C7.4031 -0.0299159 7.14235 -0.0120783 6.91481 0.0971178C6.66559 0.217327 6.48381 0.43649 6.41638 0.696699L6.06748 2.04099C5.9564 2.46878 5.795 2.88189 5.58664 3.27167C5.28245 3.8412 4.81188 4.29785 4.32224 4.71932L3.26748 5.62822C3.12115 5.75467 3.00687 5.91398 2.93399 6.09312C2.86111 6.27225 2.83172 6.46611 2.84821 6.65879L3.44339 13.5437C3.46963 13.8482 3.60908 14.1318 3.83421 14.3385C4.05935 14.5451 4.3538 14.6599 4.65941 14.66H8.06633C10.6186 14.66 12.7963 12.8818 13.2155 10.4564Z" fill="#BFBFBF"/>
<path fill-rule="evenodd" clip-rule="evenodd" d="M0.52634 5.48685C0.667996 5.48066 0.806567 5.52944 0.913107 5.623C1.01965 5.71657 1.08591 5.84768 1.09807 5.98895L1.80906 14.2248C1.82111 14.3474 1.80802 14.4712 1.77061 14.5886C1.7332 14.7061 1.67225 14.8146 1.59147 14.9077C1.5107 15.0007 1.4118 15.0764 1.30081 15.1299C1.18983 15.1835 1.06909 15.2139 0.945975 15.2192C0.822857 15.2246 0.699943 15.2047 0.58474 15.161C0.469537 15.1172 0.364464 15.0504 0.275937 14.9647C0.187411 14.879 0.117289 14.7761 0.0698561 14.6624C0.0224227 14.5486 -0.00132714 14.4264 5.72166e-05 14.3032V6.03586C0.000117113 5.89416 0.0548892 5.75796 0.152946 5.65567C0.251003 5.55338 0.38477 5.4929 0.52634 5.48685Z" fill="#BFBFBF"/>
</svg>
