<svg width="14" height="16" viewBox="0 0 14 16" fill="none" xmlns="http://www.w3.org/2000/svg">
<path d="M0.78446 4.76334L0.267707 7.75392C0.237383 7.9292 0.245719 8.10899 0.292133 8.28071C0.338547 8.45243 0.421919 8.61194 0.536416 8.74808C0.650912 8.88422 0.793768 8.9937 0.954992 9.06887C1.11622 9.14403 1.29192 9.18306 1.4698 9.18324L5.26739 9.18324C5.35602 9.18322 5.44359 9.20249 5.52402 9.23972C5.60444 9.27696 5.6758 9.33125 5.73314 9.39883C5.79047 9.46642 5.8324 9.54568 5.85602 9.6311C5.87964 9.71652 5.88438 9.80606 5.86991 9.8935L5.38394 12.8584C5.30507 13.3398 5.32754 13.8324 5.4499 14.3046C5.50226 14.4997 5.6031 14.6784 5.74304 14.8241C5.88298 14.9698 6.05748 15.0778 6.25032 15.138L6.35661 15.1725C6.5969 15.2496 6.85765 15.2318 7.08519 15.1226C7.33441 15.0024 7.51619 14.7832 7.58362 14.523L7.93252 13.1787C8.0436 12.7509 8.205 12.3378 8.41336 11.9481C8.71755 11.3785 9.18813 10.9219 9.67776 10.5004L10.7325 9.59151C10.8788 9.46506 10.9931 9.30574 11.066 9.12661C11.1389 8.94747 11.1683 8.75362 11.1518 8.56093L10.5566 1.67601C10.5304 1.37152 10.3909 1.08794 10.1658 0.881259C9.94065 0.67458 9.6462 0.559833 9.34059 0.559677L5.93368 0.559677C3.38142 0.559676 1.20373 2.3379 0.78446 4.76334Z" fill="black" fill-opacity="0.25"/>
<path fill-rule="evenodd" clip-rule="evenodd" d="M13.4737 9.73287C13.332 9.73907 13.1934 9.69029 13.0869 9.59672C12.9804 9.50316 12.9141 9.37205 12.9019 9.23078L12.1909 0.994967C12.1789 0.872323 12.192 0.748511 12.2294 0.631094C12.2668 0.513676 12.3278 0.405117 12.4085 0.312047C12.4893 0.218977 12.5882 0.14335 12.6992 0.0897845C12.8102 0.0362185 12.9309 0.00583925 13.054 0.00050155C13.1771 -0.00483615 13.3001 0.0149793 13.4153 0.0587387C13.5305 0.102498 13.6355 0.169282 13.7241 0.255012C13.8126 0.340742 13.8827 0.443618 13.9301 0.557358C13.9776 0.671097 14.0013 0.793312 13.9999 0.916537L13.9999 9.18387C13.9999 9.32557 13.9451 9.46177 13.8471 9.56406C13.749 9.66635 13.6152 9.72683 13.4737 9.73287Z" fill="black" fill-opacity="0.25"/>
</svg>
