<svg width="73" height="28" viewBox="0 0 73 28" fill="none" xmlns="http://www.w3.org/2000/svg">
<rect width="73" height="27.3231" rx="13.6615" fill="#008651"/>
<path d="M59.2944 17.8529C61.5884 17.8529 63.4481 15.9932 63.4481 13.6992C63.4481 11.4051 61.5884 9.54541 59.2944 9.54541C57.0003 9.54541 55.1406 11.4051 55.1406 13.6992C55.1406 15.9932 57.0003 17.8529 59.2944 17.8529Z" stroke="white" stroke-width="0.958558" stroke-linecap="round" stroke-linejoin="round"/>
<path d="M63.8594 18.2617L63.7763 18.1786M63.7763 9.21932L63.8594 9.13625L63.7763 9.21932ZM54.7339 18.2617L54.817 18.1786L54.7339 18.2617ZM59.2966 7.35972V7.30859V7.35972ZM59.2966 20.0894V20.0383V20.0894ZM52.9574 13.699H52.9062H52.9574ZM65.687 13.699H65.6359H65.687ZM54.817 9.21932L54.7339 9.13625L54.817 9.21932Z" stroke="white" stroke-width="1.27808" stroke-linecap="round" stroke-linejoin="round"/>
<path d="M7.32204 13.97C7.5521 17.261 10.3447 19.9386 13.6869 20.0856C16.0449 20.1878 18.1538 19.0887 19.4191 17.3569C19.9431 16.6476 19.6619 16.1747 18.7864 16.3344C18.3582 16.4111 17.9173 16.4431 17.4572 16.4239C14.3323 16.2961 11.7761 13.6824 11.7634 10.5959C11.757 9.76511 11.9295 8.97909 12.2426 8.26337C12.5877 7.47096 12.1723 7.09393 11.3736 7.43262C8.84296 8.49981 7.11116 11.0496 7.32204 13.97Z" stroke="white" stroke-width="0.958558" stroke-linecap="round" stroke-linejoin="round"/>
<ellipse cx="59.3809" cy="13.6615" rx="10.8794" ry="10.9209" transform="rotate(-135 59.3809 13.6615)" fill="white"/>
<path d="M65.7559 7.29006C69.2586 10.7928 69.2455 16.485 65.7266 20.0039" stroke="#008651" stroke-width="2.15927" stroke-linecap="round"/>
</svg>
