<svg width="70" height="70" viewBox="0 0 70 70" fill="none" xmlns="http://www.w3.org/2000/svg">
<path d="M35 70C25.7174 70 16.815 66.3125 10.2513 59.7487C3.68749 53.185 -1.93565e-06 44.2826 -1.5299e-06 35C-1.12414e-06 25.7174 3.68748 16.815 10.2513 10.2513C16.815 3.68749 25.7174 -5.34023e-07 35 -1.5299e-06L35 35L35 70Z" fill="#008651"/>
<path d="M17.5277 43.8405C17.2053 44.1627 16.7682 44.3437 16.3125 44.3437C15.8567 44.3437 15.4197 44.1627 15.0973 43.8405L7.36297 36.1061C7.04075 35.7838 6.85974 35.3467 6.85974 34.891C6.85974 34.4352 7.04075 33.9981 7.36297 33.6758L15.0973 25.9415C15.4215 25.6284 15.8557 25.4551 16.3063 25.459C16.757 25.463 17.188 25.6437 17.5067 25.9624C17.8254 26.2811 18.0061 26.7121 18.0101 27.1628C18.014 27.6135 17.8407 28.0476 17.5277 28.3718L12.875 33.1722L29.2031 33.1722C29.659 33.1722 30.0961 33.3533 30.4185 33.6757C30.7408 33.998 30.9219 34.4352 30.9219 34.891C30.9219 35.3468 30.7408 35.784 30.4185 36.1063C30.0961 36.4287 29.659 36.6097 29.2031 36.6097L12.875 36.6097L17.5277 41.4102C17.8499 41.7325 18.0309 42.1696 18.0309 42.6254C18.0309 43.0811 17.8499 43.5182 17.5277 43.8405Z" fill="white"/>
</svg>
