<svg width="73" height="28" viewBox="0 0 73 28" fill="none" xmlns="http://www.w3.org/2000/svg">
<rect width="73" height="27.3231" rx="13.6615" fill="#008651"/>
<path d="M59.2944 17.8527C61.5884 17.8527 63.4481 15.993 63.4481 13.6989C63.4481 11.4049 61.5884 9.54517 59.2944 9.54517C57.0003 9.54517 55.1406 11.4049 55.1406 13.6989C55.1406 15.993 57.0003 17.8527 59.2944 17.8527Z" stroke="white" stroke-width="0.958558" stroke-linecap="round" stroke-linejoin="round"/>
<path d="M63.8594 18.2617L63.7763 18.1786M63.7763 9.21932L63.8594 9.13625L63.7763 9.21932ZM54.7339 18.2617L54.817 18.1786L54.7339 18.2617ZM59.2966 7.35972V7.30859V7.35972ZM59.2966 20.0894V20.0383V20.0894ZM52.9574 13.699H52.9062H52.9574ZM65.687 13.699H65.6359H65.687ZM54.817 9.21932L54.7339 9.13625L54.817 9.21932Z" stroke="white" stroke-width="1.27808" stroke-linecap="round" stroke-linejoin="round"/>
<path d="M7.32204 13.9702C7.5521 17.2613 10.3447 19.9389 13.6869 20.0858C16.0449 20.1881 18.1538 19.0889 19.4191 17.3571C19.9431 16.6478 19.6619 16.1749 18.7864 16.3347C18.3582 16.4114 17.9173 16.4433 17.4572 16.4241C14.3323 16.2963 11.7761 13.6827 11.7634 10.5961C11.757 9.76536 11.9295 8.97934 12.2426 8.26361C12.5877 7.4712 12.1723 7.09417 11.3736 7.43286C8.84296 8.50006 7.11116 11.0498 7.32204 13.9702Z" stroke="white" stroke-width="0.958558" stroke-linecap="round" stroke-linejoin="round"/>
<ellipse cx="13.6191" cy="13.6613" rx="10.8794" ry="10.9209" transform="rotate(45 13.6191 13.6613)" fill="white"/>
<path d="M7.24408 20.0329C3.74135 16.5302 3.7545 10.838 7.27344 7.31909" stroke="#008651" stroke-width="2.15927" stroke-linecap="round"/>
</svg>
